<?xml version="1.0" encoding="UTF-8" standalone="no"?>
<!-- Created with Inkscape (http://www.inkscape.org/) -->

<svg
   width="56.303543mm"
   height="16.319811mm"
   viewBox="0 0 56.303543 16.319811"
   version="1.1"
   id="svg1"
   inkscape:version="1.4 (e7c3feb100, 2024-10-09)"
   sodipodi:docname="logo_common.svg"
   xmlns:inkscape="http://www.inkscape.org/namespaces/inkscape"
   xmlns:sodipodi="http://sodipodi.sourceforge.net/DTD/sodipodi-0.dtd"
   xmlns="http://www.w3.org/2000/svg"
   xmlns:svg="http://www.w3.org/2000/svg">
  <sodipodi:namedview
     id="namedview1"
     pagecolor="#ffffff"
     bordercolor="#000000"
     borderopacity="0.25"
     inkscape:showpageshadow="2"
     inkscape:pageopacity="0.0"
     inkscape:pagecheckerboard="0"
     inkscape:deskcolor="#d1d1d1"
     inkscape:document-units="mm"
     showguides="true"
     inkscape:zoom="2.5438393"
     inkscape:cx="119.1113"
     inkscape:cy="36.362359"
     inkscape:window-width="1920"
     inkscape:window-height="1052"
     inkscape:window-x="0"
     inkscape:window-y="0"
     inkscape:window-maximized="1"
     inkscape:current-layer="layer1" />
  <defs
     id="defs1" />
  <g
     inkscape:label="Calque 1"
     inkscape:groupmode="layer"
     id="layer1"
     transform="translate(-78.335787,-101.2238)">
    <path
       style="fill:#b3b3b3;stroke-width:1.41595;stroke-linecap:round;stroke-linejoin:round;paint-order:stroke fill markers"
       d="m 132.80016,103.04755 c -0.45014,0 -0.8048,0.0945 -1.0635,0.28318 -0.25353,0.18862 -0.38034,0.44855 -0.38034,0.7798 0,0.28985 0.0804,0.5244 0.24081,0.70383 0.1604,0.17482 0.38515,0.2805 0.6749,0.3173 l 1.17977,0.15193 c 0.33631,0.0414 0.50437,0.22577 0.50437,0.55242 0,0.18403 -0.0722,0.32666 -0.21705,0.42788 -0.1397,0.10122 -0.33919,0.15141 -0.5979,0.15141 h -0.34106 c -0.25353,0 -0.45045,-0.0481 -0.59014,-0.14469 -0.1397,-0.10122 -0.20929,-0.2391 -0.20929,-0.41393 h -0.69867 c 0,0.34966 0.12939,0.62067 0.38809,0.8139 0.26388,0.18865 0.634,0.28319 1.11001,0.28319 h 0.34106 c 0.47602,0 0.84357,-0.0967 1.10227,-0.28991 0.26388,-0.19783 0.39584,-0.47359 0.39584,-0.82785 0,-0.6625 -0.36238,-1.04023 -1.08676,-1.13223 l -1.10174,-0.13798 c -0.27423,-0.0368 -0.41135,-0.18842 -0.41135,-0.45527 0,-0.16562 0.067,-0.29666 0.20154,-0.39326 0.13453,-0.0966 0.32113,-0.14521 0.55914,-0.14521 h 0.34106 c 0.21214,0 0.38329,0.0439 0.51264,0.13126 0.13451,0.0874 0.20674,0.19784 0.21705,0.33125 h 0.70641 c -0.0207,-0.29444 -0.16296,-0.53113 -0.42684,-0.71055 -0.25871,-0.18405 -0.59533,-0.27647 -1.00926,-0.27647 z"
       id="path17" />
    <g
       id="g12"
       transform="translate(3.8293)"
       style="fill:#000000;fill-opacity:0;stroke:#666666;stroke-opacity:1">
      <path
         style="fill:#000000;fill-opacity:0;stroke:#666666;stroke-width:0.264583;stroke-linecap:round;stroke-opacity:1"
         d="m 109.27073,103.40202 -0.33511,-0.81683"
         id="path10" />
      <path
         style="fill:#000000;fill-opacity:0;stroke:#666666;stroke-width:0.264583;stroke-linecap:round;stroke-opacity:1"
         d="m 110.39124,103.04596 -0.0209,-0.62833"
         id="path11" />
      <path
         style="fill:#000000;fill-opacity:0;stroke:#666666;stroke-width:0.264583;stroke-linecap:round;stroke-opacity:1"
         d="m 111.49084,103.40202 0.33511,-0.81683"
         id="path12" />
    </g>
    <g
       id="g9"
       transform="translate(-0.033515)"
       style="fill:#000000;fill-opacity:0;stroke:#666666;stroke-opacity:1">
      <path
         style="fill:#000000;fill-opacity:0;stroke:#666666;stroke-width:0.264583;stroke-linecap:round;stroke-opacity:1"
         d="m 109.27073,103.40202 -0.33511,-0.81683"
         id="path7" />
      <path
         style="fill:#000000;fill-opacity:0;stroke:#666666;stroke-width:0.264583;stroke-linecap:round;stroke-opacity:1"
         d="m 110.39124,103.04596 -0.0209,-0.62833"
         id="path8" />
      <path
         style="fill:#000000;fill-opacity:0;stroke:#666666;stroke-width:0.264583;stroke-linecap:round;stroke-opacity:1"
         d="m 111.49084,103.40202 0.33511,-0.81683"
         id="path9" />
    </g>
    <path
       d="m 125.38615,101.52042 c -0.17074,0 -0.3053,0.0469 -0.4036,0.14004 -0.0983,0.088 -0.14779,0.2091 -0.14779,0.36432 0,0.15005 0.0495,0.26908 0.14779,0.35708 0.0983,0.0879 0.23286,0.1323 0.4036,0.1323 0.17075,0 0.30529,-0.0443 0.40359,-0.1323 0.0983,-0.088 0.14728,-0.20703 0.14728,-0.35708 0,-0.15522 -0.049,-0.27632 -0.14728,-0.36432 -0.0983,-0.0931 -0.23284,-0.14004 -0.40359,-0.14004 z m -5.55522,0.34003 v 5.02915 h 0.69866 v -1.68775 h 0.83044 l 1.24179,1.68775 h 0.81494 l -1.45159,-1.98438 1.37407,-1.80454 h -0.79943 l -1.19528,1.56373 h -0.81494 v -2.80396 z m 8.56433,0.17208 v 1.06815 h -1.22628 v 0.56483 h 1.22628 v 2.22518 c 0,0.30311 0.10619,0.54649 0.31833,0.73019 0.21214,0.17908 0.4941,0.26872 0.84594,0.26872 h 1.24179 v -0.56482 h -1.24179 c -0.1397,0 -0.25358,-0.0392 -0.34158,-0.11731 -0.0828,-0.0827 -0.12454,-0.18819 -0.12454,-0.31678 v -2.22518 h 1.74667 v -0.56483 h -1.74667 v -1.06815 z m -4.63899,1.06809 v 0.56483 h 1.35806 v 2.65927 h -1.51361 v 0.56482 h 3.64784 v -0.56482 h -1.43557 v -3.2241 z"
       style="fill:#b3b3b3;stroke-width:1.41595;stroke-linecap:round;stroke-linejoin:round;paint-order:stroke fill markers"
       id="path1-4" />
    <g
       id="text1"
       style="font-weight:bold;font-size:7.7611px;font-family:Garamond;-inkscape-font-specification:'Garamond Bold';text-align:center;letter-spacing:-0.79375px;word-spacing:-0.79375px;text-anchor:middle;fill:#333333;stroke-width:1.32292;stroke-linecap:round;stroke-linejoin:round;paint-order:stroke fill markers"
       aria-label="fundus toolkit" />
    <g
       id="g17"
       transform="translate(1.1641)">
      <path
         style="font-size:16.9333px;line-height:0.9em;font-family:'JetBrains Mono';-inkscape-font-specification:'JetBrains Mono';text-align:center;letter-spacing:-1.05833px;text-anchor:middle;fill:#4d4d4d;stroke-width:1.22299;stroke-linecap:round;stroke-linejoin:round;paint-order:stroke fill markers"
         d="m 124.04325,117.39887 v -7.95939 h 1.524 v 1.51952 h 0.0169 c 0.079,-0.53063 0.33303,-0.94066 0.762,-1.23009 0.42898,-0.28943 0.99907,-0.43414 1.71027,-0.43414 0.93697,0 1.68204,0.24602 2.23519,0.73805 0.55315,0.49203 0.82973,1.16255 0.82973,2.01155 v 5.3545 h -1.52399 v -5.12295 c 0,-0.60781 -0.18062,-1.07091 -0.54187,-1.38928 -0.34995,-0.32802 -0.82973,-0.49203 -1.43933,-0.49203 -0.63218,0 -1.13453,0.16884 -1.50706,0.50651 -0.36125,0.33767 -0.54187,0.81523 -0.54187,1.43268 v 5.06507 z"
         id="path45"
         sodipodi:nodetypes="cccccssssccscscscc" />
      <path
         style="font-size:16.9333px;line-height:0.9em;font-family:'JetBrains Mono';-inkscape-font-specification:'JetBrains Mono';text-align:center;letter-spacing:-1.05833px;text-anchor:middle;fill:#4d4d4d;stroke-width:1.22299;stroke-linecap:round;stroke-linejoin:round;paint-order:stroke fill markers"
         d="m 119.13258,117.51464 c -1.11759,0 -2.00941,-0.27978 -2.67546,-0.83935 -0.65475,-0.55957 -0.98213,-1.34104 -0.98213,-2.3444 v -1.82343 c 0,-1.01301 0.32738,-1.79447 0.98213,-2.3444 0.65475,-0.55957 1.54657,-0.83935 2.67546,-0.83935 1.12889,0 2.02071,0.27978 2.67546,0.83935 0.65475,0.54993 0.98213,1.33139 0.98213,2.3444 v 1.82343 c 0,1.00336 -0.33302,1.78483 -0.99906,2.3444 -0.65475,0.55957 -1.54093,0.83935 -2.65853,0.83935 z m 0,-1.15773 c 0.66605,0 1.18534,-0.15919 1.55787,-0.47756 0.38382,-0.31838 0.57573,-0.7863 0.57573,-1.40375 v -2.11285 c 0,-0.61745 -0.19191,-1.08537 -0.57573,-1.40375 -0.37253,-0.31837 -0.89182,-0.47756 -1.55787,-0.47756 -0.65475,0 -1.17404,0.15919 -1.55786,0.47756 -0.38382,0.31838 -0.57573,0.7863 -0.57573,1.40375 v 2.11285 c 0,0.61745 0.19191,1.08537 0.57573,1.40375 0.38382,0.31837 0.90311,0.47756 1.55786,0.47756 z"
         id="path44"
         sodipodi:nodetypes="scsscscsscsscsscssssss" />
      <path
         style="font-size:16.9333px;line-height:0.9em;font-family:'JetBrains Mono';-inkscape-font-specification:'JetBrains Mono';text-align:center;letter-spacing:-1.05833px;text-anchor:middle;fill:#4d4d4d;stroke-width:1.22299;stroke-linecap:round;stroke-linejoin:round;paint-order:stroke fill markers"
         d="m 106.09394,117.39887 v -7.95939 h 1.32079 v 1.05643 h 0.0339 c 0.0565,-0.35697 0.22016,-0.6464 0.49107,-0.86829 0.28222,-0.2219 0.63782,-0.33285 1.06679,-0.33285 0.4064,0 0.75071,0.1013 1.03293,0.3039 0.28223,0.2026 0.48543,0.47756 0.6096,0.82488 h 0.0169 c 0.079,-0.34732 0.254,-0.62228 0.52493,-0.82488 0.28222,-0.2026 0.63782,-0.3039 1.0668,-0.3039 0.59831,0 1.07244,0.19295 1.42239,0.57886 0.36125,0.37626 0.54187,0.8683 0.54187,1.47611 v 6.04913 h -1.4224 v -6.0636 c 0,-0.31838 -0.0903,-0.56922 -0.27093,-0.75253 -0.18062,-0.19295 -0.42898,-0.28943 -0.74507,-0.28943 -0.30479,0 -0.5475,0.0917 -0.72813,0.27496 -0.18062,0.18331 -0.27093,0.43415 -0.27093,0.75252 v 6.07808 h -1.25306 v -6.0636 c 0,-0.31838 -0.0903,-0.56922 -0.27094,-0.75253 -0.18062,-0.19295 -0.42333,-0.28943 -0.72813,-0.28943 -0.31609,0 -0.56444,0.0917 -0.74506,0.27496 -0.18063,0.18331 -0.27094,0.43415 -0.27094,0.75252 v 6.07808 z"
         id="path43"
         sodipodi:nodetypes="ccccccsscccscsccscsssccscssscc" />
      <path
         style="font-size:16.9333px;line-height:0.9em;font-family:'JetBrains Mono';-inkscape-font-specification:'JetBrains Mono';text-align:center;letter-spacing:-1.05833px;text-anchor:middle;fill:#4d4d4d;stroke-width:1.22299;stroke-linecap:round;stroke-linejoin:round;paint-order:stroke fill markers"
         d="m 96.712908,117.39887 v -7.95939 h 1.320797 v 1.05643 h 0.03387 c 0.05645,-0.35697 0.220135,-0.6464 0.491066,-0.86829 0.282221,-0.2219 0.637821,-0.33285 1.066798,-0.33285 0.406391,0 0.750701,0.1013 1.032931,0.3039 0.28222,0.2026 0.48542,0.47756 0.6096,0.82488 h 0.0169 c 0.079,-0.34732 0.254,-0.62228 0.52493,-0.82488 0.28222,-0.2026 0.63782,-0.3039 1.0668,-0.3039 0.59831,0 1.07244,0.19295 1.4224,0.57886 0.36124,0.37626 0.54186,0.8683 0.54186,1.47611 v 6.04913 h -1.4224 v -6.0636 c 0,-0.31838 -0.0903,-0.56922 -0.27093,-0.75253 -0.18062,-0.19295 -0.42897,-0.28943 -0.74506,-0.28943 -0.3048,0 -0.54751,0.0917 -0.72814,0.27496 -0.18062,0.18331 -0.27093,0.43415 -0.27093,0.75252 v 6.07808 h -1.25306 v -6.0636 c 0,-0.31838 -0.0903,-0.56922 -0.270932,-0.75253 -0.180622,-0.19295 -0.423333,-0.28943 -0.728132,-0.28943 -0.316088,0 -0.564443,0.0917 -0.745065,0.27496 -0.180622,0.18331 -0.270933,0.43415 -0.270933,0.75252 v 6.07808 z"
         id="path42"
         sodipodi:nodetypes="ccccccsscccscsccscsssccscssscc" />
      <path
         style="font-size:16.9333px;line-height:0.9em;font-family:'JetBrains Mono';-inkscape-font-specification:'JetBrains Mono';text-align:center;letter-spacing:-1.05833px;text-anchor:middle;fill:#4d4d4d;stroke-width:1.22299;stroke-linecap:round;stroke-linejoin:round;paint-order:stroke fill markers"
         d="m 91.802236,117.51464 c -1.117598,0 -2.009418,-0.27978 -2.675461,-0.83935 -0.654755,-0.55957 -0.982132,-1.34104 -0.982132,-2.3444 v -1.82343 c 0,-1.01301 0.327377,-1.79447 0.982132,-2.3444 0.654754,-0.55957 1.546574,-0.83935 2.675461,-0.83935 1.128887,0 2.020707,0.27978 2.675461,0.83935 0.654755,0.54993 0.982132,1.33139 0.982132,2.3444 v 1.82343 c 0,1.00336 -0.333022,1.78483 -0.999065,2.3444 -0.654754,0.55957 -1.54093,0.83935 -2.658528,0.83935 z m 0,-1.15773 c 0.666043,0 1.185331,-0.15919 1.557864,-0.47756 0.383821,-0.31838 0.575732,-0.7863 0.575732,-1.40375 v -2.11285 c 0,-0.61745 -0.191911,-1.08537 -0.575732,-1.40375 -0.372533,-0.31837 -0.891821,-0.47756 -1.557864,-0.47756 -0.654754,0 -1.174042,0.15919 -1.557864,0.47756 -0.383821,0.31838 -0.575732,0.7863 -0.575732,1.40375 v 2.11285 c 0,0.61745 0.191911,1.08537 0.575732,1.40375 0.383822,0.31837 0.90311,0.47756 1.557864,0.47756 z"
         id="path41"
         sodipodi:nodetypes="scsscscsscsscsscscsscs" />
      <path
         style="font-size:16.9333px;line-height:0.9em;font-family:'JetBrains Mono';-inkscape-font-specification:'JetBrains Mono';text-align:center;letter-spacing:-1.05833px;text-anchor:middle;fill:#4d4d4d;stroke-width:1.22299;stroke-linecap:round;stroke-linejoin:round;paint-order:stroke fill markers"
         d="m 83.250903,117.54361 c -1.128887,0 -2.031996,-0.27014 -2.709328,-0.81041 -0.677332,-0.54027 -1.015998,-1.28315 -1.015998,-2.22863 v -2.17074 c 0,-0.94548 0.338666,-1.68835 1.015998,-2.22862 0.677332,-0.54028 1.580441,-0.81042 2.709328,-0.81042 1.072443,0 1.936041,0.24602 2.590795,0.73805 0.666043,0.49204 1.015998,1.16256 1.049865,2.01156 h -1.523997 c -0.03387,-0.51133 -0.237066,-0.90207 -0.609599,-1.1722 -0.372533,-0.27979 -0.874887,-0.41968 -1.507064,-0.41968 -0.666043,0 -1.202264,0.16401 -1.608663,0.49204 -0.395111,0.31837 -0.592666,0.77664 -0.592666,1.3748 v 2.18521 c 0,0.59816 0.197555,1.06125 0.592666,1.38928 0.406399,0.32802 0.94262,0.49203 1.608663,0.49203 0.632177,0 1.134531,-0.13989 1.507064,-0.41968 0.372533,-0.27978 0.575732,-0.67051 0.609599,-1.1722 h 1.523997 c -0.03387,0.849 -0.383822,1.51952 -1.049865,2.01156 -0.654754,0.49203 -1.518352,0.73805 -2.590795,0.73805 z"
         id="text2"
         sodipodi:nodetypes="sssscsccccscsscsccccs" />
    </g>
    <path
       style="fill:#666666;stroke:none;stroke-width:0.264583;stroke-linecap:round;stroke-linejoin:round;stroke-dasharray:none;paint-order:stroke fill markers"
       d="m 114.21008,103.04742 c -0.51741,0 -0.92619,0.13364 -1.22628,0.40049 -0.3001,0.26224 -0.4501,0.63469 -0.4501,1.11776 v 0.86971 c 0,0.47848 0.15,0.85093 0.4501,1.11777 0.30527,0.26685 0.71405,0.40049 1.22628,0.40049 0.51223,0 0.91844,-0.13364 1.21853,-0.40049 0.30527,-0.26684 0.45786,-0.63929 0.45786,-1.11777 v -0.86971 c 0,-0.48307 -0.15002,-0.85552 -0.45011,-1.11776 -0.3001,-0.26685 -0.70887,-0.40049 -1.22628,-0.40049 z m 0,0.55232 c 0.30527,0 0.54291,0.0755 0.71365,0.22737 0.17588,0.15182 0.26407,0.37529 0.26407,0.66973 v 1.00769 c 0,0.29444 -0.0881,0.51739 -0.26407,0.66921 -0.17074,0.15184 -0.40838,0.22789 -0.71365,0.22789 -0.30009,0 -0.53825,-0.0761 -0.71417,-0.22789 -0.17588,-0.15182 -0.26406,-0.37477 -0.26406,-0.66921 v -1.00769 c 0,-0.29444 0.0881,-0.51791 0.26406,-0.66973 0.17592,-0.15184 0.41408,-0.22737 0.71417,-0.22737 z"
       id="path5" />
    <path
       style="fill:#666666;stroke:none;stroke-width:0.264583;stroke-linecap:round;stroke-linejoin:round;stroke-dasharray:none;paint-order:stroke fill markers"
       d="m 105.74703,102.03305 v 1.0697 h -1.22628 v 0.56586 h 1.22628 v 2.22932 c 0,0.30364 0.10567,0.5472 0.31781,0.73122 0.21213,0.17945 0.49411,0.26923 0.84595,0.26923 h 1.24178 v -0.56585 h -1.24178 c -0.1397,0 -0.25307,-0.0391 -0.34107,-0.11731 -0.0828,-0.0828 -0.12454,-0.18847 -0.12454,-0.31729 v -2.22932 h 1.74615 v -0.56586 h -1.74615 v -1.0697 z"
       id="path3" />
    <path
       style="fill:#666666;stroke:none;stroke-width:0.264583;stroke-linecap:round;stroke-linejoin:round;stroke-dasharray:none;paint-order:stroke fill markers"
       d="m 81.958305,101.86045 h -1.185458 c -0.331141,0 -0.49661,0.15001 -0.49661,0.4501 v 0.7922 h 1.746147 v 0.56586 h -1.746147 v 3.22099 h -0.698665 v -3.22099 h -1.241785 v -0.56586 h 1.241785 v -0.7922 c 0,-0.33631 0.106189,-0.59973 0.318326,-0.79117 0.212137,-0.19667 0.504416,-0.29507 0.876949,-0.29507 h 1.185458 v -5.1e-4 l 34.468085,5.1e-4 c 0.37253,0 0.66481,0.0984 0.87694,0.29507 0.21214,0.19144 0.31833,0.45486 0.31833,0.79117 l -4.2e-4,3.37654 c 0,0.17591 0.049,0.3156 0.14728,0.41909 0.0983,0.0983 0.23027,0.14728 0.39584,0.14728 h 1.31982 v 0.63614 h -1.31982 c -0.37771,0 -0.68029,-0.10825 -0.90795,-0.32556 -0.22248,-0.22249 -0.33383,-0.51477 -0.33383,-0.87695 l 4.2e-4,-3.37654 c 0,-0.30009 -0.16547,-0.4501 -0.49661,-0.4501 z"
       id="rect8" />
    <path
       style="fill:#b3b3b3;stroke-width:1.41595;stroke-linecap:round;stroke-linejoin:round;paint-order:stroke fill markers"
       d="m 94.140508,103.10275 v 2.41536 c 0,0.44626 0.147428,0.80074 0.44235,1.06298 0.294922,0.25764 0.688237,0.38654 1.179773,0.38654 0.491537,0 0.88743,-0.1289 1.187525,-0.38654 0.300096,-0.26224 0.450101,-0.61672 0.450101,-1.06298 v -2.41536 h -0.698665 v 2.41536 c 0,0.27604 -0.08557,0.49686 -0.256315,0.66249 -0.16557,0.16103 -0.392898,0.24184 -0.682646,0.24184 -0.284573,0 -0.509841,-0.0808 -0.675411,-0.24184 -0.165566,-0.16563 -0.248047,-0.38645 -0.248047,-0.66249 v -2.41536 z"
       id="path16" />
    <path
       style="fill:#b3b3b3;stroke-width:1.41595;stroke-linecap:round;stroke-linejoin:round;paint-order:stroke fill markers"
       d="m 82.551551,103.10275 v 2.41536 c 0,0.44626 0.14743,0.80074 0.442351,1.06298 0.294922,0.25764 0.688236,0.38654 1.179773,0.38654 0.491536,0 0.887428,-0.1289 1.187524,-0.38654 0.300096,-0.26224 0.450102,-0.61672 0.450102,-1.06298 v -2.41536 h -0.698666 v 2.41536 c 0,0.27604 -0.08505,0.49686 -0.255798,0.66249 -0.16557,0.16103 -0.393415,0.24184 -0.683162,0.24184 -0.284574,0 -0.509325,-0.0808 -0.674895,-0.24184 -0.165565,-0.16563 -0.248563,-0.38645 -0.248563,-0.66249 v -2.41536 z"
       id="path15" />
    <path
       style="fill:#b3b3b3;stroke-width:1.41595;stroke-linecap:round;stroke-linejoin:round;paint-order:stroke fill markers"
       d="m 99.462664,103.04755 c -0.450143,0 -0.804798,0.0945 -1.063501,0.28318 -0.253529,0.18862 -0.380339,0.44855 -0.380339,0.7798 0,0.28985 0.08042,0.5244 0.240812,0.70383 0.160396,0.17482 0.385148,0.2805 0.674895,0.3173 l 1.179769,0.15193 c 0.33631,0.0414 0.50437,0.22577 0.50437,0.55242 0,0.18403 -0.0722,0.32666 -0.21705,0.42788 -0.1397,0.10122 -0.33919,0.15141 -0.597897,0.15141 h -0.341059 c -0.253529,0 -0.450446,-0.0481 -0.590145,-0.14469 -0.1397,-0.10122 -0.20929,-0.2391 -0.20929,-0.41393 h -0.698665 c 0,0.34966 0.129387,0.62067 0.38809,0.8139 0.263877,0.18865 0.633996,0.28319 1.11001,0.28319 h 0.341059 c 0.476017,0 0.843567,-0.0967 1.102267,-0.28991 0.26388,-0.19783 0.39584,-0.47359 0.39584,-0.82785 0,-0.6625 -0.36238,-1.04023 -1.08676,-1.13223 l -1.101739,-0.13798 c -0.274226,-0.0368 -0.411344,-0.18842 -0.411344,-0.45527 0,-0.16562 0.06701,-0.29666 0.201538,-0.39326 0.134526,-0.0966 0.321132,-0.14521 0.559139,-0.14521 h 0.341059 c 0.212137,0 0.383287,0.0439 0.512637,0.13126 0.13451,0.0874 0.20674,0.19784 0.21705,0.33125 h 0.70641 c -0.0207,-0.29444 -0.16296,-0.53113 -0.42684,-0.71055 -0.25871,-0.18405 -0.59533,-0.27647 -1.009257,-0.27647 z"
       id="path14" />
    <path
       style="fill:#b3b3b3;stroke-width:1.41595;stroke-linecap:round;stroke-linejoin:round;paint-order:stroke fill markers"
       d="m 88.269549,103.03415 c -0.325966,0 -0.587317,0.0687 -0.783932,0.20671 -0.196613,0.13803 -0.313113,0.33348 -0.349333,0.58652 h -0.0078 v -0.7245 h -0.698149 v 3.79563 h 0.698198 v -2.41535 c 0,-0.29444 0.08299,-0.52214 0.248564,-0.68316 0.170744,-0.16103 0.401165,-0.24133 0.690913,-0.24133 0.279399,0 0.498996,0.0782 0.659392,0.23461 0.165565,0.15182 0.248563,0.37265 0.248563,0.66249 v 2.44274 h 0.698149 v -2.55333 c 0,-0.40486 -0.12681,-0.72448 -0.380339,-0.95911 -0.253529,-0.23464 -0.594778,-0.35192 -1.024226,-0.35192 z"
       id="path13" />
    <path
       style="fill:#b3b3b3;stroke-width:1.41595;stroke-linecap:round;stroke-linejoin:round;paint-order:stroke fill markers"
       d="m 92.823276,102.03318 v 0.93172 l 0.0155,0.86248 h -0.0078 c -0.04139,-0.24384 -0.168201,-0.43667 -0.380338,-0.57929 -0.206963,-0.14264 -0.470891,-0.21394 -0.791683,-0.21394 -0.429447,0 -0.770698,0.12627 -1.024227,0.37931 -0.253529,0.25304 -0.380339,0.598 -0.380339,1.03507 v 1.11105 c 0,0.43247 0.12681,0.77532 0.380339,1.02836 0.258703,0.25304 0.599954,0.37982 1.024227,0.37982 0.320792,0 0.58472,-0.0692 0.791683,-0.20722 0.206961,-0.14262 0.328615,-0.33809 0.364835,-0.58653 h 0.0078 v 0.7245 h 0.698665 v -4.86533 z m -0.93121,1.53879 c 0.289748,0 0.517076,0.0808 0.682646,0.24185 0.165565,0.16102 0.248564,0.38397 0.248564,0.66921 v 1.03508 c 0,0.28524 -0.08299,0.5087 -0.248564,0.66972 -0.16557,0.16103 -0.392898,0.24133 -0.682646,0.24133 -0.294922,0 -0.525343,-0.0692 -0.690913,-0.20722 -0.165565,-0.13802 -0.248564,-0.36096 -0.248564,-0.66921 v -1.10433 c 0,-0.31285 0.08299,-0.53578 0.248564,-0.6692 0.16557,-0.13803 0.395991,-0.20723 0.690913,-0.20723 z"
       id="path1" />
    <circle
       style="fill:#554400;stroke-width:0.264583"
       id="path2"
       cx="110.34727"
       cy="105.00053"
       r="0.58193493"
       inkscape:transform-center-x="1.0104423"
       inkscape:transform-center-y="-0.75783175" />
    <circle
       style="fill:#554400;stroke-width:0.264583"
       id="circle5"
       cx="114.21008"
       cy="105.00053"
       r="0.58193493"
       inkscape:transform-center-x="1.0104423"
       inkscape:transform-center-y="-0.75783175" />
    <path
       style="fill:#1a1a1a;stroke-width:0.264583"
       d="m 109.06128,103.46486 c -0.25133,-0.62834 -0.25133,-0.62834 -0.25133,-0.62834"
       id="path6" />
    <path
       style="fill:#666666;stroke:none;stroke-width:0.264583;stroke-linecap:round;stroke-linejoin:round;stroke-dasharray:none;paint-order:stroke fill markers"
       d="m 110.34727,103.04742 c -0.51741,0 -0.92619,0.13364 -1.22628,0.40049 -0.3001,0.26224 -0.4501,0.63469 -0.4501,1.11776 v 0.86971 c 0,0.47848 0.15,0.85093 0.4501,1.11777 0.30527,0.26685 0.71405,0.40049 1.22628,0.40049 0.51223,0 0.91792,-0.13364 1.21801,-0.40049 0.30527,-0.26684 0.45837,-0.63929 0.45837,-1.11777 v -0.86971 c 0,-0.48307 -0.15052,-0.85552 -0.45062,-1.11776 -0.30009,-0.26685 -0.70835,-0.40049 -1.22576,-0.40049 z m 0,0.55232 c 0.30527,0 0.54291,0.0755 0.71365,0.22737 0.17588,0.15182 0.26407,0.37529 0.26407,0.66973 v 1.00769 c 0,0.29444 -0.0881,0.51739 -0.26407,0.66921 -0.17074,0.15184 -0.40838,0.22789 -0.71365,0.22789 -0.30009,0 -0.53825,-0.0761 -0.71417,-0.22789 -0.17588,-0.15182 -0.26407,-0.37477 -0.26407,-0.66921 v -1.00769 c 0,-0.29444 0.0881,-0.51791 0.26407,-0.66973 0.17592,-0.15184 0.41408,-0.22737 0.71417,-0.22737 z"
       id="path4" />
  </g>
</svg>
